<?xml version="1.0" standalone="no"?>
<!DOCTYPE svg PUBLIC "-//W3C//DTD SVG 20010904//EN"
 "http://www.w3.org/TR/2001/REC-SVG-20010904/DTD/svg10.dtd">
<svg version="1.0" xmlns="http://www.w3.org/2000/svg"
 width="326.000000pt" height="274.000000pt" viewBox="0 0 326.000000 274.000000"
 preserveAspectRatio="xMidYMid meet">

<g transform="translate(0.000000,274.000000) scale(0.100000,-0.100000)"
fill="#000000" stroke="none">
<path d="M545 2394 c-16 -8 -39 -24 -51 -35 -28 -26 -34 -24 -34 11 0 27 -3
30 -30 30 l-30 0 0 -226 0 -225 33 3 32 3 3 157 2 156 40 36 c50 45 95 49 131
10 23 -24 24 -33 29 -192 l5 -167 33 -3 32 -3 0 154 0 154 45 42 c52 48 99 55
131 20 17 -18 20 -42 24 -193 l5 -171 35 0 35 0 3 145 c4 176 -7 239 -49 274
-33 28 -86 42 -123 32 -14 -3 -45 -22 -70 -41 l-46 -35 -15 24 c-33 51 -114
70 -170 40z"/>
<path d="M1943 2390 c-17 -10 -38 -29 -45 -42 -12 -23 -13 -22 -18 12 -4 31
-8 35 -35 35 l-30 0 0 -220 0 -220 35 0 35 0 5 150 c5 136 7 153 28 183 32 44
56 55 103 47 38 -7 39 -6 39 24 0 51 -58 67 -117 31z"/>
<path d="M2201 2392 c-49 -24 -76 -65 -75 -112 2 -59 27 -88 109 -125 89 -41
113 -70 93 -112 -9 -20 -24 -31 -52 -38 -37 -9 -61 -4 -138 29 -18 8 -33 -21
-23 -47 17 -43 172 -58 232 -22 61 36 82 128 41 180 -12 15 -51 41 -87 57 -82
36 -101 53 -101 89 0 54 72 75 146 44 38 -16 50 -7 42 32 -7 39 -128 56 -187
25z"/>
<path d="M2572 2390 c-31 -14 -47 -29 -57 -54 -34 -80 -5 -134 93 -178 37 -16
75 -37 85 -46 26 -23 22 -67 -10 -92 -32 -25 -88 -24 -143 3 -38 19 -50 15
-50 -17 0 -31 16 -43 77 -57 109 -25 202 19 218 104 13 70 -30 124 -126 158
-80 27 -106 73 -65 114 30 30 81 33 128 9 34 -17 52 -8 46 22 -4 26 -64 54
-113 54 -22 0 -59 -9 -83 -20z"/>
<path d="M1110 2386 c0 -9 36 -112 80 -230 l80 -215 -29 -73 c-16 -40 -27 -76
-24 -80 5 -10 55 -10 69 0 17 11 225 595 215 605 -5 5 -21 7 -37 5 -28 -3 -31
-9 -89 -176 -41 -118 -63 -169 -69 -159 -5 7 -34 85 -65 173 l-56 159 -37 3
c-29 2 -38 -1 -38 -12z"/>
<path d="M980 745 l0 -325 35 0 35 0 0 325 0 325 -35 0 -35 0 0 -325z"/>
<path d="M1197 1034 c-4 -4 -7 -22 -7 -40 0 -27 5 -35 24 -40 14 -3 34 -3 46
1 17 5 21 13 18 43 -3 34 -6 37 -38 40 -20 2 -39 0 -43 -4z"/>
<path d="M2427 983 c-4 -3 -7 -30 -7 -60 l0 -53 -34 0 c-26 0 -36 -5 -41 -20
-9 -29 2 -40 40 -40 l34 0 3 -170 3 -170 28 -27 c24 -24 35 -28 88 -28 64 0
82 12 76 50 -3 21 -5 21 -48 10 -17 -4 -33 0 -50 13 -23 20 -24 23 -24 169 l0
148 60 5 c56 5 60 7 60 30 0 24 -3 25 -62 28 l-63 3 0 59 c0 59 0 60 -28 60
-16 0 -32 -3 -35 -7z"/>
<path d="M678 871 c-102 -33 -155 -156 -129 -297 21 -111 75 -159 181 -159 89
0 134 25 138 79 l3 38 -44 -26 c-30 -18 -58 -26 -89 -26 -40 0 -50 5 -76 35
-35 39 -48 100 -38 172 9 68 35 106 83 122 38 14 43 13 95 -12 30 -15 58 -27
62 -27 18 0 -1 64 -25 82 -29 22 -119 32 -161 19z"/>
<path d="M1523 869 c-41 -12 -98 -71 -115 -118 -7 -20 -13 -72 -12 -116 0
-161 82 -236 242 -221 83 7 116 24 120 59 4 31 3 32 -62 12 -103 -31 -175 -11
-206 57 -11 24 -20 53 -20 66 0 22 1 22 144 22 115 0 146 3 156 15 18 21 4
116 -23 157 -43 64 -137 92 -224 67z m126 -63 c30 -16 51 -53 51 -91 l0 -25
-115 0 c-72 0 -115 4 -115 10 0 25 30 78 55 98 32 25 83 29 124 8z"/>
<path d="M2045 862 c-22 -10 -47 -27 -55 -37 -14 -17 -15 -16 -20 11 -4 24
-11 30 -38 32 l-32 3 0 -225 0 -226 35 0 35 0 0 150 c0 167 5 183 65 220 33
20 70 25 99 14 34 -13 41 -48 46 -214 l5 -165 35 0 35 0 0 175 c0 149 -3 180
-18 207 -36 66 -118 89 -192 55z"/>
<path d="M1200 645 l0 -225 35 0 35 0 0 225 0 225 -35 0 -35 0 0 -225z"/>
</g>
</svg>
